<?xml version="1.0" encoding="UTF-8" standalone="no"?>
<svg
   xmlns:dc="http://purl.org/dc/elements/1.1/"
   xmlns:cc="http://creativecommons.org/ns#"
   xmlns:rdf="http://www.w3.org/1999/02/22-rdf-syntax-ns#"
   xmlns:svg="http://www.w3.org/2000/svg"
   xmlns="http://www.w3.org/2000/svg"
   xmlns:sodipodi="http://sodipodi.sourceforge.net/DTD/sodipodi-0.dtd"
   xmlns:inkscape="http://www.inkscape.org/namespaces/inkscape"
   enable-background="new 0 0 56.693 56.693"
   height="32"
   id="Layer_1"
   version="1.1"
   viewBox="0 0 32 32"
   width="32"
   xml:space="preserve"
   inkscape:version="0.48.4 r9939"
   sodipodi:docname="blogger.svg"><metadata
     id="metadata9"><rdf:RDF><cc:Work
         rdf:about=""><dc:format>image/svg+xml</dc:format><dc:type
           rdf:resource="http://purl.org/dc/dcmitype/StillImage" /></cc:Work></rdf:RDF></metadata><defs
     id="defs7" /><sodipodi:namedview
     pagecolor="#000000"
     bordercolor="#666666"
     borderopacity="1"
     objecttolerance="10"
     gridtolerance="10"
     guidetolerance="10"
     inkscape:pageopacity="1"
     inkscape:pageshadow="2"
     inkscape:window-width="1600"
     inkscape:window-height="844"
     id="namedview5"
     showgrid="false"
     inkscape:zoom="10.992318"
     inkscape:cx="28.3465"
     inkscape:cy="28.3465"
     inkscape:window-x="0"
     inkscape:window-y="27"
     inkscape:window-maximized="1"
     inkscape:current-layer="Layer_1" /><path
     clip-rule="evenodd"
     d="m 31.905622,13.291727 -0.26984,-0.556222 -0.451949,-0.351612 C 30.594305,11.923685 27.61144,12.41369 26.807901,11.686628 26.238312,11.164177 26.149916,10.222572 25.977112,8.9512065 25.658089,6.4786659 25.454047,6.3515293 25.067232,5.5171957 23.662866,2.5453793 19.851206,0.31055746 17.233223,0 H 10.140279 C 4.5606995,0 0,4.5537392 0,10.11199 V 21.907214 C 0,27.455531 4.5606995,32 10.140279,32 h 11.653644 c 5.579579,0 10.112364,-4.544469 10.143602,-10.092786 L 32,13.737367 31.90562,13.291727 z M 10.269882,8.2645368 h 5.623445 c 1.07205,0 1.942052,0.8681041 1.942052,1.9269132 0,1.056822 -0.870002,1.934859 -1.942052,1.934859 h -5.623445 c -1.0733796,0 -1.9427173,-0.878037 -1.9427173,-1.934859 0,-1.0588091 0.8693377,-1.9269132 1.9427173,-1.9269132 z m 11.42634,15.4192772 h -11.42634 c -1.0733796,0 -1.9427173,-0.879361 -1.9427173,-1.924264 0,-1.060796 0.8693377,-1.924265 1.9427173,-1.924265 h 11.42634 c 1.066733,0 1.931418,0.864131 1.931418,1.924265 0,1.044903 -0.864685,1.924264 -1.931418,1.924264 z"
     id="path3"
     inkscape:connector-curvature="0"
     style="fill-rule:evenodd;fill:#ffffff" /></svg>