<?xml version="1.0" encoding="UTF-8" standalone="no"?>
<!-- Created with Inkscape (http://www.inkscape.org/) -->

<svg
   xmlns:dc="http://purl.org/dc/elements/1.1/"
   xmlns:cc="http://creativecommons.org/ns#"
   xmlns:rdf="http://www.w3.org/1999/02/22-rdf-syntax-ns#"
   xmlns:svg="http://www.w3.org/2000/svg"
   xmlns="http://www.w3.org/2000/svg"
   xmlns:sodipodi="http://sodipodi.sourceforge.net/DTD/sodipodi-0.dtd"
   xmlns:inkscape="http://www.inkscape.org/namespaces/inkscape"
   version="1.1"
   width="32"
   height="32"
   viewBox="0 0 32 32"
   id="svg2"
   inkscape:version="0.48.4 r9939"
   sodipodi:docname="facebook.svg">
  <sodipodi:namedview
     pagecolor="#000000"
     bordercolor="#666666"
     borderopacity="1"
     objecttolerance="10"
     gridtolerance="10"
     guidetolerance="10"
     inkscape:pageopacity="1"
     inkscape:pageshadow="2"
     inkscape:window-width="1600"
     inkscape:window-height="844"
     id="namedview6"
     showgrid="false"
     fit-margin-top="0"
     fit-margin-left="0"
     fit-margin-right="0"
     fit-margin-bottom="0"
     inkscape:zoom="19.568393"
     inkscape:cx="22.583388"
     inkscape:cy="16.486748"
     inkscape:window-x="0"
     inkscape:window-y="27"
     inkscape:window-maximized="1"
     inkscape:current-layer="svg2" />
  <metadata
     id="metadata12">
    <rdf:RDF>
      <cc:Work
         rdf:about="">
        <dc:format>image/svg+xml</dc:format>
        <dc:type
           rdf:resource="http://purl.org/dc/dcmitype/StillImage" />
        <dc:title />
      </cc:Work>
    </rdf:RDF>
  </metadata>
  <defs
     id="defs10" />
  <path
     d="M 16.424449,8.1346589e-4 C 14.367828,0.01553624 12.296983,0.24048039 10.568562,1.5689043 8.5761375,3.3806018 9.4081279,5.8256538 9.0980299,8.4589981 l -3.0913368,0 0,4.0087829 3.5874768,0 c 0,4.192354 10e-7,8.621958 0,13.132219 l 5.5338731,0 0,-12.927028 c 0.960748,0.0018 2.579759,-0.122074 3.892794,-0.199791 0.180843,-1.350685 0.454544,-2.691333 0.57247,-4.0487401 l -4.471227,0 C 15.13276,7.13139 14.98038,5.8319864 15.358224,4.4836949 16.505635,3.6959111 18.217387,4.2483991 19.593307,4.0657533 l 0,-4.0433407 c -1.01824,0.020881 -2.091581,-0.0293114 -3.168858,-0.0215991041 z"
     id="path2994"
     style="fill:#ffffff"
     inkscape:connector-curvature="0" />
</svg>
