<?xml version="1.0" encoding="UTF-8" standalone="no"?>
<!-- Generator: Adobe Illustrator 14.0.0, SVG Export Plug-In . SVG Version: 6.00 Build 43363)  -->

<svg
   xmlns:dc="http://purl.org/dc/elements/1.1/"
   xmlns:cc="http://creativecommons.org/ns#"
   xmlns:rdf="http://www.w3.org/1999/02/22-rdf-syntax-ns#"
   xmlns:svg="http://www.w3.org/2000/svg"
   xmlns="http://www.w3.org/2000/svg"
   xmlns:sodipodi="http://sodipodi.sourceforge.net/DTD/sodipodi-0.dtd"
   xmlns:inkscape="http://www.inkscape.org/namespaces/inkscape"
   version="1.0"
   id="Layer_1"
   x="0px"
   y="0px"
   width="32"
   height="32"
   viewBox="0 0 32 32"
   enable-background="new 0 0 98.918 100"
   xml:space="preserve"
   inkscape:version="0.48.4 r9939"
   sodipodi:docname="noun_104.svg"><metadata
     id="metadata13"><rdf:RDF><cc:Work
         rdf:about=""><dc:format>image/svg+xml</dc:format><dc:type
           rdf:resource="http://purl.org/dc/dcmitype/StillImage" /></cc:Work></rdf:RDF></metadata><defs
     id="defs11" /><sodipodi:namedview
     pagecolor="#000000"
     bordercolor="#666666"
     borderopacity="1"
     objecttolerance="10"
     gridtolerance="10"
     guidetolerance="10"
     inkscape:pageopacity="1"
     inkscape:pageshadow="2"
     inkscape:window-width="1600"
     inkscape:window-height="844"
     id="namedview9"
     showgrid="false"
     inkscape:zoom="6.231875"
     inkscape:cx="43.040386"
     inkscape:cy="37.162772"
     inkscape:window-x="0"
     inkscape:window-y="27"
     inkscape:window-maximized="1"
     inkscape:current-layer="Layer_1" /><g
     id="g2990"
     transform="matrix(0.32350027,0,0,0.31999999,0,21.759999)"
     style="fill:#ffffff"><ellipse
       transform="translate(0,-68)"
       sodipodi:ry="13.714"
       sodipodi:rx="13.566"
       sodipodi:cy="86.286003"
       sodipodi:cx="13.566"
       id="ellipse3"
       ry="13.714"
       rx="13.566"
       cy="86.286003"
       cx="13.566"
       d="M 27.132,86.286003 C 27.132,93.860036 21.058295,100 13.566,100 6.0737051,100 0,93.860036 0,86.286003 c 0,-7.574033 6.0737051,-13.714 13.566,-13.714 7.492295,0 13.566,6.139967 13.566,13.714 z"
       style="fill:#ffffff" /><path
       inkscape:connector-curvature="0"
       id="path5"
       d="M 65.569,32 H 46.35 C 46.35,6.121 25.598,-14.858 0,-14.858 l 0,0 v -19.427 c 36.214,0 65.569,29.676 65.569,66.285 z"
       style="fill:#ffffff" /><path
       inkscape:connector-curvature="0"
       id="path7"
       d="M 79.135,32 C 79.135,-12.183 43.706,-48 0,-48 v -20 c 54.631,0 98.918,44.772 98.918,100 H 79.135 z"
       style="fill:#ffffff" /></g></svg>