<?xml version="1.0" encoding="UTF-8" standalone="no"?>
<svg
   xmlns:dc="http://purl.org/dc/elements/1.1/"
   xmlns:cc="http://creativecommons.org/ns#"
   xmlns:rdf="http://www.w3.org/1999/02/22-rdf-syntax-ns#"
   xmlns:svg="http://www.w3.org/2000/svg"
   xmlns="http://www.w3.org/2000/svg"
   xmlns:sodipodi="http://sodipodi.sourceforge.net/DTD/sodipodi-0.dtd"
   xmlns:inkscape="http://www.inkscape.org/namespaces/inkscape"
   enable-background="new 0 0 56.693 56.693"
   height="32"
   id="Layer_1"
   version="1.1"
   viewBox="0 0 32 32"
   width="32"
   xml:space="preserve"
   inkscape:version="0.48.4 r9939"
   sodipodi:docname="flickr.svg"><metadata
     id="metadata13"><rdf:RDF><cc:Work
         rdf:about=""><dc:format>image/svg+xml</dc:format><dc:type
           rdf:resource="http://purl.org/dc/dcmitype/StillImage" /></cc:Work></rdf:RDF></metadata><defs
     id="defs11" /><sodipodi:namedview
     pagecolor="#000000"
     bordercolor="#666666"
     borderopacity="1"
     objecttolerance="10"
     gridtolerance="10"
     guidetolerance="10"
     inkscape:pageopacity="1"
     inkscape:pageshadow="2"
     inkscape:window-width="1600"
     inkscape:window-height="844"
     id="namedview9"
     showgrid="false"
     inkscape:zoom="1"
     inkscape:cx="16"
     inkscape:cy="16"
     inkscape:window-x="0"
     inkscape:window-y="27"
     inkscape:window-maximized="1"
     inkscape:current-layer="Layer_1" /><g
     id="g3"
     transform="matrix(0.65777304,0,0,0.65779964,-2.6455633,-2.6466465)"
     style="fill:#ffffff"><circle
       cx="14.811"
       cy="28.347"
       r="10.789"
       id="circle5"
       sodipodi:cx="14.811"
       sodipodi:cy="28.347"
       sodipodi:rx="10.789"
       sodipodi:ry="10.789"
       d="m 25.599999,28.347 c 0,5.9586 -4.830399,10.789 -10.788999,10.789 -5.9586001,0 -10.7889997,-4.8304 -10.7889997,-10.789 0,-5.9586 4.8303996,-10.788999 10.7889997,-10.788999 5.9586,0 10.788999,4.830399 10.788999,10.788999 z"
       style="fill:#ffffff" /><circle
       cx="41.882"
       cy="28.347"
       r="10.789"
       id="circle7"
       sodipodi:cx="41.882"
       sodipodi:cy="28.347"
       sodipodi:rx="10.789"
       sodipodi:ry="10.789"
       d="m 52.671,28.347 c 0,5.9586 -4.8304,10.789 -10.789,10.789 -5.9586,0 -10.789,-4.8304 -10.789,-10.789 0,-5.9586 4.8304,-10.788999 10.789,-10.788999 5.9586,0 10.789,4.830399 10.789,10.788999 z"
       style="fill:#ffffff" /></g></svg>